<mxfile host="drawio-plugin" modified="2023-01-16T10:06:21.981Z" agent="5.0 (Windows NT 6.2; Win64; x64) AppleWebKit/537.36 (KHTML, like Gecko) Chrome/98.0.4758.102 Safari/537.36" etag="rxXvGhAt8PxB58DpVGfM" version="15.5.4" type="embed"><diagram id="BZ10pNfYrQwi_6ObdzNJ" name="第 1 页"><mxGraphModel dx="1379" dy="742" grid="1" gridSize="10" guides="1" tooltips="1" connect="1" arrows="1" fold="1" page="1" pageScale="1" pageWidth="1169" pageHeight="1654" math="0" shadow="0"><root><mxCell id="0"/><mxCell id="1" parent="0"/><mxCell id="95" value="" style="edgeStyle=orthogonalEdgeStyle;rounded=0;orthogonalLoop=1;jettySize=auto;html=1;" edge="1" parent="1" source="93" target="94"><mxGeometry relative="1" as="geometry"/></mxCell><mxCell id="97" value="" style="edgeStyle=orthogonalEdgeStyle;rounded=0;orthogonalLoop=1;jettySize=auto;html=1;" edge="1" parent="1" source="93" target="96"><mxGeometry relative="1" as="geometry"/></mxCell><mxCell id="93" value="&lt;div&gt;每个浏览器都有自己的驱动，均以exe文件形式存在&lt;/div&gt;&lt;div&gt;&lt;span&gt;比如谷歌的chromedriver.exe、火狐的geckodriver.exe、IE的IEDriverServer.exe&lt;/span&gt;&lt;br&gt;&lt;/div&gt;&lt;div&gt;浏览器驱动中包含一个HTTP Server，有来接收http请求&lt;/div&gt;" style="rounded=0;whiteSpace=wrap;html=1;" vertex="1" parent="1"><mxGeometry x="410" y="250" width="280" height="220" as="geometry"/></mxCell><mxCell id="99" style="edgeStyle=orthogonalEdgeStyle;rounded=0;orthogonalLoop=1;jettySize=auto;html=1;exitX=0;exitY=0.5;exitDx=0;exitDy=0;" edge="1" parent="1" source="94" target="93"><mxGeometry relative="1" as="geometry"/></mxCell><mxCell id="94" value="浏览器当然就是我们很熟悉的常用的各种浏览器。" style="rounded=0;whiteSpace=wrap;html=1;" vertex="1" parent="1"><mxGeometry x="1000" y="330" width="120" height="60" as="geometry"/></mxCell><mxCell id="98" style="edgeStyle=orthogonalEdgeStyle;rounded=0;orthogonalLoop=1;jettySize=auto;html=1;entryX=0;entryY=0.5;entryDx=0;entryDy=0;" edge="1" parent="1" source="96" target="93"><mxGeometry relative="1" as="geometry"><mxPoint x="350" y="360" as="targetPoint"/></mxGeometry></mxCell><mxCell id="96" value="selenium webDriver" style="rounded=0;whiteSpace=wrap;html=1;" vertex="1" parent="1"><mxGeometry x="10" y="330" width="120" height="60" as="geometry"/></mxCell><mxCell id="100" value="Selenium 脚本，翻译成http请求" style="text;html=1;align=center;verticalAlign=middle;resizable=0;points=[];autosize=1;strokeColor=none;fillColor=none;" vertex="1" parent="1"><mxGeometry x="135" y="330" width="180" height="20" as="geometry"/></mxCell><mxCell id="101" value="将HTTP请求翻译成功具体操控指令" style="text;html=1;align=center;verticalAlign=middle;resizable=0;points=[];autosize=1;strokeColor=none;fillColor=none;" vertex="1" parent="1"><mxGeometry x="690" y="330" width="200" height="20" as="geometry"/></mxCell><mxCell id="102" value="HTTP Server 将结果返回Selenium 脚本，&lt;br&gt;若错误HTTP代码，就会再控制台看到对应的&lt;br&gt;报错信息" style="text;html=1;align=center;verticalAlign=middle;resizable=0;points=[];autosize=1;strokeColor=none;fillColor=none;" vertex="1" parent="1"><mxGeometry x="135" y="370" width="250" height="50" as="geometry"/></mxCell><mxCell id="103" value="步骤执行结果返回给HTTP Server" style="text;html=1;align=center;verticalAlign=middle;resizable=0;points=[];autosize=1;strokeColor=none;fillColor=none;" vertex="1" parent="1"><mxGeometry x="695" y="370" width="190" height="20" as="geometry"/></mxCell></root></mxGraphModel></diagram></mxfile>